<?xml version="1.0" encoding="UTF-8"?>
<!DOCTYPE svg PUBLIC "-//W3C//DTD SVG 1.1//EN" "http://www.w3.org/Graphics/SVG/1.1/DTD/svg11.dtd">
<!-- Creator: CorelDRAW -->
<svg xmlns="http://www.w3.org/2000/svg" xml:space="preserve" width="338.667mm" height="338.667mm" version="1.1" style="shape-rendering:geometricPrecision; text-rendering:geometricPrecision; image-rendering:optimizeQuality; fill-rule:evenodd; clip-rule:evenodd"
viewBox="0 0 3386666 3386666"
 xmlns:xlink="http://www.w3.org/1999/xlink"
 xmlns:xodm="http://www.corel.com/coreldraw/odm/2003">
 <defs>
  <style type="text/css">
   <![CDATA[
    .str0 {stroke:#E6E6E6;stroke-width:1693;stroke-miterlimit:22.9256}
    .fil0 {fill:white}
    .fil1 {fill:white;fill-rule:nonzero}
   ]]>
  </style>
 </defs>
 <g id="Camada_x0020_1">
  <metadata id="CorelCorpID_0Corel-Layer"/>
  <rect class="fil0 str0" x="1" y="-1" width="3386667" height="3386667"/>
  <path class="fil0" d="M1575292 1398543l0 -184616c-184,101878 -82738,184432 -184616,184616 101878,185 184432,82738 184616,184616l0 -184616zm179832 -365519c-106468,0 -212942,0 -319410,0 101220,184 188430,50875 248430,130072l467454 617104c14514,19162 35203,29445 59240,29445l38047 0 0 -271067 -316044 -417224c-43546,-57486 -105599,-88330 -177717,-88330zm-319411 776622l277062 0 0 -277062c-275,152894 -124168,276787 -277062,277062zm-390285 -1l276971 0 0 -776621 -276971 0c50968,92 92262,41386 92355,92354l0 591913c-93,50967 -41387,92262 -92355,92354zm1018841 -776621l184616 0 0 184615c-183,-101878 -82737,-184432 -184616,-184615z"/>
  <path class="fil1" d="M909991 2285645c-6581,62667 -62041,61101 -89928,61101l-14414 0 0 -105282 20367 0c7834,0 41674,314 43241,31647l4073 0 0 -67054 -4073 0c-1567,31386 -34781,31386 -43241,31386l-20367 0 0 -103088 16921 0c25380,0 79587,627 83347,52537l4074 0 0 -56662 -153536 0 0 4125c13787,0 16921,10027 16921,29558l0 150246c0,21306 -3760,32587 -16921,32587l0 4073 157609 0 0 -65174 -4073 0z"/>
  <path id="_1" class="fil1" d="M1102066 2282825c-5326,63921 -58594,64234 -92121,63921l-11280 0 0 -184556c0,-22560 9714,-27887 23187,-27887l0 -4073 -74574 0 0 4073c13473,0 19740,7207 19740,26320l0 152909c0,21307 -3760,33214 -17233,33214l0 4073 156355 0 0 -67994 -4074 0z"/>
  <path id="_2" class="fil1" d="M1293202 2282825c-5326,63921 -58594,64234 -92121,63921l-11280 0 0 -184556c0,-22560 9714,-27887 23187,-27887l0 -4073 -74574 0 0 4073c13473,0 19740,7207 19740,26320l0 152909c0,21307 -3760,33214 -17233,33214l0 4073 156355 0 0 -67994 -4074 0z"/>
  <path id="_3" class="fil1" d="M1479012 2285645c-6581,62667 -62041,61101 -89928,61101l-14414 0 0 -105282 20367 0c7834,0 41674,314 43241,31647l4073 0 0 -67054 -4073 0c-1567,31386 -34781,31386 -43241,31386l-20367 0 0 -103088 16921 0c25380,0 79587,627 83347,52537l4074 0 0 -56662 -153536 0 0 4125c13787,0 16921,10027 16921,29558l0 150246c0,21306 -3760,32587 -16921,32587l0 4073 157609 0 0 -65174 -4073 0z"/>
  <path id="_4" class="fil1" d="M1657927 2130230l0 3760c41361,0 41047,45120 41047,74261l0 96821 -135361 -174842 -57968 0 0 3760c8147,626 17234,-1254 37287,23813l12847 16607 0 98075c0,28200 0,74261 -45434,74261l0 4073 90555 0 0 -4073c-41047,0 -41047,-46688 -41047,-74261l0 -93375 133168 171709 10027 0 0 -142568c0,-29141 -940,-74261 44494,-74261l0 -3760 -89615 0z"/>
  <path id="_5" class="fil1" d="M1910790 2130230l0 3760c41361,0 41047,45120 41047,74261l0 96821 -135361 -174842 -57968 0 0 3760c8147,626 17234,-1254 37287,23813l12847 16607 0 98075c0,28200 0,74261 -45434,74261l0 4073 90555 0 0 -4073c-41047,0 -41047,-46688 -41047,-74261l0 -93375 133168 171709 10027 0 0 -142568c0,-29141 -940,-74261 44494,-74261l0 -3760 -89615 0z"/>
  <path id="_6" class="fil1" d="M2188407 2242091c0,86168 -28514,107475 -65488,107475 -37287,0 -65800,-21307 -65800,-107475 0,-85854 28513,-110608 65800,-110608 36974,0 65488,24754 65488,110608zm36347 0c0,-62041 -32901,-114681 -101835,-114681 -68934,0 -101834,52640 -101834,114681 0,62354 32900,111548 101834,111548 68934,0 101835,-49194 101835,-111548z"/>
  <path id="_7" class="fil1" d="M2340376 2353639c38540,0 76140,-20680 76140,-76768l0 -85227c0,-29454 -940,-57341 40108,-57341l0 -4073 -81468 0 0 4073c36660,0 37287,27887 37287,57341l0 85227c0,40421 -24754,62668 -56714,62668 -33840,0 -57027,-22247 -57027,-61101l0 -116561c0,-24754 11280,-27574 24753,-27574l0 -4073 -78021 0 0 4073c13787,0 22247,5954 22247,27260l0 114055c0,51074 31961,78021 72695,78021z"/>
  <path id="_8" class="fil1" d="M2613918 2327945c16294,-25693 9401,-60474 -32587,-88047l-51700 -34154c-47314,-30707 -21620,-74261 12220,-74261 52327,0 64547,32587 67367,63294l4387 0 0 -52640c0,0 -26320,-14727 -71754,-14727 -43554,0 -58907,24440 -58907,24440 -24127,36974 4386,65487 34153,85228l52014 33527c36661,26007 30394,78961 -17233,78961 -53268,0 -67368,-35407 -70814,-73635l-3761 0 0 60161c0,0 23501,17547 74575,17547 48567,0 62040,-25694 62040,-25694z"/>
 </g>
</svg>
